<svg width="20" height="16" viewBox="0 0 20 16" fill="none" xmlns="http://www.w3.org/2000/svg">
<g clip-path="url(#clip0_37_1496)">
<path d="M11.3142 7.98652L13.264 10.1497L15.886 11.7759L16.3421 8.00017L15.886 4.30963L13.2137 5.73818L11.3142 7.98652Z" fill="#00832D"/>
<path d="M0 11.4245V14.6419C0 15.3766 0.614375 15.973 1.37141 15.973H4.68625L5.37266 13.542L4.68625 11.4245L2.41203 10.7582L0 11.4245Z" fill="#0066DA"/>
<path d="M4.68625 0L0 4.54855L2.41219 5.21319L4.68625 4.54855L5.36016 2.45983L4.68625 0Z" fill="#E94235"/>
<path d="M0 11.4259H4.68617V4.54846H0V11.4259Z" fill="#2684FC"/>
<path d="M18.8797 1.92589L15.886 4.30967V11.7758L18.892 14.1689C19.342 14.511 20.0003 14.1992 20.0003 13.644V2.44017C20.0003 1.8788 19.3263 1.56851 18.8796 1.92597" fill="#00AC47"/>
<path d="M11.3142 7.98651V11.4245H4.68628V15.973H14.5147C15.2717 15.973 15.886 15.3765 15.886 14.6419V11.7759L11.3142 7.98651Z" fill="#00AC47"/>
<path d="M14.5147 0H4.68628V4.54855H11.3142V7.9865L15.8861 4.30954V1.33118C15.8861 0.596398 15.2717 7.58294e-05 14.5147 7.58294e-05" fill="#FFBA00"/>
</g>
<defs>
<clipPath id="clip0_37_1496">
<rect width="20" height="16" fill="white"/>
</clipPath>
</defs>
</svg>
