<svg width="20" height="20" viewBox="0 0 20 20" fill="none" xmlns="http://www.w3.org/2000/svg">
<g clip-path="url(#clip0_569_2392)">
<path d="M0.423595 9.88035C0.42313 11.5607 0.8622 13.2015 1.69708 14.6477L0.34375 19.589L5.40049 18.2631C6.79912 19.0245 8.36618 19.4234 9.95863 19.4235H9.96282C15.2198 19.4235 19.4991 15.1458 19.5013 9.88787C19.5024 7.34004 18.511 4.94422 16.71 3.14174C14.9092 1.33942 12.5142 0.346317 9.96243 0.345154C4.70484 0.345154 0.425843 4.62267 0.423672 9.88035" fill="url(#paint0_linear_569_2392)"/>
<path d="M0.0829457 9.87721C0.0824031 11.6181 0.537209 13.3175 1.40186 14.8155L0 19.9339L5.23806 18.5605C6.68132 19.3474 8.30628 19.7622 9.95977 19.7629H9.96403C15.4096 19.7629 19.8426 15.3312 19.845 9.88512C19.8459 7.24574 18.8189 4.7638 16.9535 2.89674C15.0878 1.02992 12.6072 0.00108527 9.96403 0C4.51752 0 0.0851163 4.43101 0.0829457 9.87721ZM3.20233 14.5575L3.00674 14.2471C2.18457 12.9398 1.75062 11.4291 1.75124 9.87783C1.75302 5.35109 5.43705 1.66822 9.96713 1.66822C12.1609 1.66915 14.2226 2.52434 15.7733 4.07597C17.324 5.62775 18.1772 7.69054 18.1767 9.8845C18.1747 14.4112 14.4905 18.0946 9.96403 18.0946H9.96078C8.4869 18.0938 7.0414 17.698 5.78078 16.95L5.48078 16.7721L2.3724 17.5871L3.20233 14.5574V14.5575Z" fill="url(#paint1_linear_569_2392)"/>
<path d="M7.49452 5.74789C7.30956 5.3368 7.11491 5.32851 6.93902 5.3213C6.79499 5.31509 6.63034 5.31556 6.46584 5.31556C6.30119 5.31556 6.03367 5.3775 5.80755 5.6244C5.58119 5.87153 4.94336 6.46874 4.94336 7.68339C4.94336 8.89812 5.82809 10.072 5.95142 10.2369C6.07491 10.4015 7.65941 12.9739 10.1689 13.9635C12.2544 14.7859 12.6789 14.6223 13.1315 14.5811C13.5842 14.54 14.5923 13.984 14.7979 13.4075C15.0037 12.8311 15.0037 12.337 14.942 12.2337C14.8803 12.1308 14.7157 12.069 14.4688 11.9456C14.2218 11.8221 13.008 11.2249 12.7817 11.1425C12.5554 11.0601 12.3908 11.019 12.2261 11.2663C12.0615 11.5131 11.5887 12.069 11.4446 12.2337C11.3006 12.3987 11.1565 12.4193 10.9097 12.2958C10.6627 12.1719 9.86755 11.9115 8.92421 11.0705C8.19026 10.4161 7.69475 9.60796 7.55072 9.36075C7.40669 9.11393 7.5353 8.98013 7.6591 8.85711C7.77003 8.74649 7.90607 8.56882 8.02964 8.42471C8.15274 8.28052 8.19382 8.17765 8.27615 8.013C8.35855 7.84819 8.31731 7.70401 8.25568 7.58052C8.19382 7.45703 7.71406 6.23602 7.49452 5.74789Z" fill="white"/>
</g>
<defs>
<linearGradient id="paint0_linear_569_2392" x1="958.224" y1="1924.73" x2="958.224" y2="0.345154" gradientUnits="userSpaceOnUse">
<stop stop-color="#1FAF38"/>
<stop offset="1" stop-color="#60D669"/>
</linearGradient>
<linearGradient id="paint1_linear_569_2392" x1="992.248" y1="1993.39" x2="992.248" y2="0" gradientUnits="userSpaceOnUse">
<stop stop-color="#F9F9F9"/>
<stop offset="1" stop-color="white"/>
</linearGradient>
<clipPath id="clip0_569_2392">
<rect width="19.845" height="20" fill="white"/>
</clipPath>
</defs>
</svg>
