<svg width="20" height="20" viewBox="0 0 20 20" fill="none" xmlns="http://www.w3.org/2000/svg">
<path d="M17.7083 10C17.7096 11.0121 17.5111 12.0144 17.1243 12.9497C16.7375 13.8849 16.1699 14.7346 15.4541 15.45C14.738 16.1663 13.8877 16.7345 12.9518 17.122C12.0159 17.5095 11.0129 17.7087 9.99996 17.7084C8.90979 17.7108 7.83164 17.4806 6.83746 17.0334L3.61496 17.51C3.45496 17.5361 3.291 17.5228 3.13732 17.4712C2.98365 17.4195 2.8449 17.3312 2.73313 17.2137C2.62136 17.0963 2.53996 16.9534 2.49598 16.7973C2.45201 16.6413 2.44679 16.4769 2.48079 16.3184L2.92829 13.0492C2.50262 12.0893 2.28561 11.05 2.29163 10C2.29033 8.98796 2.48878 7.9856 2.87559 7.05038C3.26241 6.11516 3.82998 5.26548 4.54579 4.55002C5.26195 3.8337 6.11226 3.26555 7.04813 2.87805C7.98399 2.49055 8.98705 2.2913 9.99996 2.29169C12.0455 2.29182 14.0072 3.10411 15.4541 4.55002C16.1696 5.26575 16.7369 6.11549 17.1237 7.05065C17.5105 7.9858 17.7091 8.98803 17.7083 10Z" stroke="white" stroke-width="1.5" stroke-linecap="round" stroke-linejoin="round"/>
<path d="M10 10.5083C10.1349 10.5083 10.2644 10.4547 10.3598 10.3593C10.4552 10.2639 10.5088 10.1345 10.5088 9.99959C10.5088 9.86467 10.4552 9.73526 10.3598 9.63985C10.2644 9.54444 10.1349 9.49084 10 9.49084C9.86509 9.49084 9.73569 9.54444 9.64028 9.63985C9.54487 9.73526 9.49127 9.86467 9.49127 9.99959C9.49127 10.1345 9.54487 10.2639 9.64028 10.3593C9.73569 10.4547 9.86509 10.5083 10 10.5083ZM13.5659 10.5083C13.7008 10.5083 13.8302 10.4547 13.9256 10.3593C14.021 10.2639 14.0746 10.1345 14.0746 9.99959C14.0746 9.86467 14.021 9.73526 13.9256 9.63985C13.8302 9.54444 13.7008 9.49084 13.5659 9.49084C13.4309 9.49084 13.3015 9.54444 13.2061 9.63985C13.1107 9.73526 13.0571 9.86467 13.0571 9.99959C13.0571 10.1345 13.1107 10.2639 13.2061 10.3593C13.3015 10.4547 13.4309 10.5083 13.5659 10.5083ZM6.43419 10.5083C6.501 10.5084 6.56716 10.4953 6.62891 10.4698C6.69065 10.4443 6.74677 10.4068 6.79405 10.3596C6.84133 10.3124 6.87885 10.2564 6.90447 10.1947C6.93009 10.133 6.9433 10.0668 6.94335 10C6.94341 9.9332 6.9303 9.86703 6.90479 9.80529C6.87927 9.74354 6.84184 9.68743 6.79464 9.64015C6.74744 9.59287 6.69138 9.55535 6.62968 9.52973C6.56797 9.50411 6.50183 9.4909 6.43502 9.49084C6.30009 9.49084 6.17069 9.54444 6.07528 9.63985C5.97987 9.73526 5.92627 9.86467 5.92627 9.99959C5.92627 10.1345 5.97987 10.2639 6.07528 10.3593C6.17069 10.4547 6.29926 10.5083 6.43419 10.5083Z" stroke="white" stroke-width="1.5" stroke-linecap="round" stroke-linejoin="round"/>
</svg>
